<mxfile host="app.diagrams.net" modified="2023-06-13T21:50:07.510Z" agent="Mozilla/5.0 (Windows NT 10.0; Win64; x64) AppleWebKit/537.36 (KHTML, like Gecko) Chrome/114.0.0.0 Safari/537.36" etag="L72VaZSnrF8wsZ2Ozkmx" version="21.3.8" type="github">
  <diagram name="Страница 1" id="OszjeNOZxy6qTSElbqYc">
    <mxGraphModel dx="1221" dy="775" grid="1" gridSize="10" guides="1" tooltips="1" connect="1" arrows="1" fold="1" page="1" pageScale="1" pageWidth="1169" pageHeight="826" math="0" shadow="0">
      <root>
        <mxCell id="0" />
        <mxCell id="1" parent="0" />
        <mxCell id="LKAKo_rA1OwzLk9EC3xo-1" value="&lt;b&gt;GRAMMAR&lt;/b&gt;" style="rounded=0;whiteSpace=wrap;html=1;" parent="1" vertex="1">
          <mxGeometry x="520" y="40" width="120" height="60" as="geometry" />
        </mxCell>
        <mxCell id="LKAKo_rA1OwzLk9EC3xo-3" value="&lt;p style=&quot;margin:0px;margin-top:4px;text-align:center;&quot;&gt;&lt;b&gt;TERMINAL&lt;/b&gt;&lt;/p&gt;&lt;hr size=&quot;1&quot;&gt;&lt;p style=&quot;margin:0px;margin-left:4px;&quot;&gt;+ name&lt;/p&gt;&lt;p style=&quot;margin:0px;margin-left:4px;&quot;&gt;+ regExpr&lt;/p&gt;" style="verticalAlign=top;align=left;overflow=fill;fontSize=12;fontFamily=Helvetica;html=1;" parent="1" vertex="1">
          <mxGeometry x="130" y="330" width="160" height="70" as="geometry" />
        </mxCell>
        <mxCell id="LKAKo_rA1OwzLk9EC3xo-4" value="&lt;p style=&quot;margin:0px;margin-top:4px;text-align:center;&quot;&gt;&lt;b&gt;NONTERMINAL&lt;/b&gt;&lt;/p&gt;&lt;hr size=&quot;1&quot;&gt;&lt;p style=&quot;margin:0px;margin-left:4px;&quot;&gt;+ name&lt;/p&gt;" style="verticalAlign=top;align=left;overflow=fill;fontSize=12;fontFamily=Helvetica;html=1;" parent="1" vertex="1">
          <mxGeometry x="500" y="270" width="160" height="50" as="geometry" />
        </mxCell>
        <mxCell id="LKAKo_rA1OwzLk9EC3xo-5" value="&lt;p style=&quot;margin:0px;margin-top:4px;text-align:center;&quot;&gt;&lt;b&gt;KEY&lt;/b&gt;&lt;/p&gt;&lt;hr size=&quot;1&quot;&gt;&lt;p style=&quot;margin:0px;margin-left:4px;&quot;&gt;+ string&lt;/p&gt;" style="verticalAlign=top;align=left;overflow=fill;fontSize=12;fontFamily=Helvetica;html=1;" parent="1" vertex="1">
          <mxGeometry x="330" y="300" width="160" height="50" as="geometry" />
        </mxCell>
        <mxCell id="LKAKo_rA1OwzLk9EC3xo-7" value="" style="endArrow=diamondThin;endFill=1;endSize=24;html=1;rounded=0;exitX=0.5;exitY=0;exitDx=0;exitDy=0;entryX=0;entryY=0.5;entryDx=0;entryDy=0;" parent="1" source="LKAKo_rA1OwzLk9EC3xo-3" target="LKAKo_rA1OwzLk9EC3xo-1" edge="1">
          <mxGeometry width="160" relative="1" as="geometry">
            <mxPoint x="600" y="390" as="sourcePoint" />
            <mxPoint x="300" y="90" as="targetPoint" />
          </mxGeometry>
        </mxCell>
        <mxCell id="LKAKo_rA1OwzLk9EC3xo-8" value="*" style="text;html=1;strokeColor=none;fillColor=none;align=center;verticalAlign=middle;whiteSpace=wrap;rounded=0;" parent="1" vertex="1">
          <mxGeometry x="410" y="280" width="20" height="30" as="geometry" />
        </mxCell>
        <mxCell id="LKAKo_rA1OwzLk9EC3xo-12" value="" style="endArrow=diamondThin;endFill=1;endSize=24;html=1;rounded=0;exitX=0.5;exitY=0;exitDx=0;exitDy=0;entryX=0;entryY=0.75;entryDx=0;entryDy=0;" parent="1" source="LKAKo_rA1OwzLk9EC3xo-5" target="LKAKo_rA1OwzLk9EC3xo-1" edge="1">
          <mxGeometry width="160" relative="1" as="geometry">
            <mxPoint x="455" y="140" as="sourcePoint" />
            <mxPoint x="410" y="190" as="targetPoint" />
          </mxGeometry>
        </mxCell>
        <mxCell id="LKAKo_rA1OwzLk9EC3xo-15" value="" style="endArrow=diamondThin;endFill=1;endSize=24;html=1;rounded=0;exitX=0.25;exitY=0;exitDx=0;exitDy=0;entryX=0.5;entryY=1;entryDx=0;entryDy=0;" parent="1" source="LKAKo_rA1OwzLk9EC3xo-4" target="LKAKo_rA1OwzLk9EC3xo-1" edge="1">
          <mxGeometry width="160" relative="1" as="geometry">
            <mxPoint x="581" y="201" as="sourcePoint" />
            <mxPoint x="584" y="210" as="targetPoint" />
          </mxGeometry>
        </mxCell>
        <mxCell id="LKAKo_rA1OwzLk9EC3xo-17" value="*" style="text;html=1;strokeColor=none;fillColor=none;align=center;verticalAlign=middle;whiteSpace=wrap;rounded=0;" parent="1" vertex="1">
          <mxGeometry x="540" y="250" width="20" height="30" as="geometry" />
        </mxCell>
        <mxCell id="LKAKo_rA1OwzLk9EC3xo-26" value="" style="endArrow=diamondThin;endFill=1;endSize=24;html=1;rounded=0;exitX=1;exitY=0.5;exitDx=0;exitDy=0;entryX=0;entryY=0.5;entryDx=0;entryDy=0;" parent="1" source="LKAKo_rA1OwzLk9EC3xo-4" target="LKAKo_rA1OwzLk9EC3xo-29" edge="1">
          <mxGeometry width="160" relative="1" as="geometry">
            <mxPoint x="640" y="320" as="sourcePoint" />
            <mxPoint x="750" y="300" as="targetPoint" />
          </mxGeometry>
        </mxCell>
        <mxCell id="LKAKo_rA1OwzLk9EC3xo-29" value="&lt;b&gt;ERROR_RULE&lt;/b&gt;" style="rounded=0;whiteSpace=wrap;html=1;" parent="1" vertex="1">
          <mxGeometry x="850" y="285" width="120" height="60" as="geometry" />
        </mxCell>
        <mxCell id="LKAKo_rA1OwzLk9EC3xo-30" value="" style="endArrow=diamondThin;endFill=1;endSize=24;html=1;exitX=1;exitY=0.75;exitDx=0;exitDy=0;entryX=0;entryY=1;entryDx=0;entryDy=0;rounded=0;" parent="1" source="LKAKo_rA1OwzLk9EC3xo-5" target="LKAKo_rA1OwzLk9EC3xo-29" edge="1">
          <mxGeometry width="160" relative="1" as="geometry">
            <mxPoint x="680" y="345" as="sourcePoint" />
            <mxPoint x="810" y="330" as="targetPoint" />
          </mxGeometry>
        </mxCell>
        <mxCell id="LKAKo_rA1OwzLk9EC3xo-31" value="*" style="text;html=1;strokeColor=none;fillColor=none;align=center;verticalAlign=middle;whiteSpace=wrap;rounded=0;" parent="1" vertex="1">
          <mxGeometry x="490" y="330" width="20" height="30" as="geometry" />
        </mxCell>
        <mxCell id="LKAKo_rA1OwzLk9EC3xo-32" value="" style="endArrow=diamondThin;endFill=1;endSize=24;html=1;rounded=0;exitX=0.5;exitY=0;exitDx=0;exitDy=0;entryX=1;entryY=0.647;entryDx=0;entryDy=0;entryPerimeter=0;" parent="1" source="LKAKo_rA1OwzLk9EC3xo-29" target="LKAKo_rA1OwzLk9EC3xo-1" edge="1">
          <mxGeometry width="160" relative="1" as="geometry">
            <mxPoint x="640" y="320" as="sourcePoint" />
            <mxPoint x="910" y="245.0000000000001" as="targetPoint" />
          </mxGeometry>
        </mxCell>
        <mxCell id="LKAKo_rA1OwzLk9EC3xo-33" value="*" style="text;html=1;strokeColor=none;fillColor=none;align=center;verticalAlign=middle;whiteSpace=wrap;rounded=0;" parent="1" vertex="1">
          <mxGeometry x="900" y="260" width="20" height="30" as="geometry" />
        </mxCell>
        <mxCell id="LKAKo_rA1OwzLk9EC3xo-34" value="&lt;b&gt;RULE&lt;/b&gt;" style="rounded=0;whiteSpace=wrap;html=1;" parent="1" vertex="1">
          <mxGeometry x="860" y="410" width="120" height="60" as="geometry" />
        </mxCell>
        <mxCell id="LKAKo_rA1OwzLk9EC3xo-35" value="" style="endArrow=diamondThin;endFill=1;endSize=24;html=1;exitX=1;exitY=0;exitDx=0;exitDy=0;entryX=1;entryY=0.25;entryDx=0;entryDy=0;curved=1;" parent="1" source="LKAKo_rA1OwzLk9EC3xo-34" target="LKAKo_rA1OwzLk9EC3xo-1" edge="1">
          <mxGeometry width="160" relative="1" as="geometry">
            <mxPoint x="860" y="200" as="sourcePoint" />
            <mxPoint x="650" y="95" as="targetPoint" />
            <Array as="points">
              <mxPoint x="1000" y="380" />
              <mxPoint x="970" y="55" />
            </Array>
          </mxGeometry>
        </mxCell>
        <mxCell id="LKAKo_rA1OwzLk9EC3xo-36" value="&lt;b&gt;SYMBOLS&lt;/b&gt;" style="rounded=0;whiteSpace=wrap;html=1;" parent="1" vertex="1">
          <mxGeometry x="440" y="380" width="120" height="60" as="geometry" />
        </mxCell>
        <mxCell id="LKAKo_rA1OwzLk9EC3xo-37" value="" style="endArrow=block;endFill=0;endSize=12;html=1;curved=1;exitX=1;exitY=0.5;exitDx=0;exitDy=0;entryX=0;entryY=0.5;entryDx=0;entryDy=0;" parent="1" source="LKAKo_rA1OwzLk9EC3xo-3" target="LKAKo_rA1OwzLk9EC3xo-36" edge="1">
          <mxGeometry width="160" relative="1" as="geometry">
            <mxPoint x="600" y="230" as="sourcePoint" />
            <mxPoint x="760" y="230" as="targetPoint" />
          </mxGeometry>
        </mxCell>
        <mxCell id="LKAKo_rA1OwzLk9EC3xo-38" value="" style="endArrow=block;endFill=0;endSize=12;html=1;exitX=0.5;exitY=1;exitDx=0;exitDy=0;entryX=0.5;entryY=0;entryDx=0;entryDy=0;strokeColor=default;rounded=0;jumpStyle=arc;" parent="1" source="LKAKo_rA1OwzLk9EC3xo-4" target="LKAKo_rA1OwzLk9EC3xo-36" edge="1">
          <mxGeometry width="160" relative="1" as="geometry">
            <mxPoint x="390" y="405" as="sourcePoint" />
            <mxPoint x="480" y="453" as="targetPoint" />
          </mxGeometry>
        </mxCell>
        <mxCell id="LKAKo_rA1OwzLk9EC3xo-40" value="" style="endArrow=diamondThin;endFill=1;endSize=24;html=1;exitX=1;exitY=1;exitDx=0;exitDy=0;entryX=0;entryY=0;entryDx=0;entryDy=0;rounded=0;jumpStyle=arc;" parent="1" source="LKAKo_rA1OwzLk9EC3xo-4" target="LKAKo_rA1OwzLk9EC3xo-34" edge="1">
          <mxGeometry width="160" relative="1" as="geometry">
            <mxPoint x="500" y="348" as="sourcePoint" />
            <mxPoint x="860" y="360" as="targetPoint" />
          </mxGeometry>
        </mxCell>
        <mxCell id="LKAKo_rA1OwzLk9EC3xo-41" value="&lt;b&gt;RHS&lt;/b&gt;" style="rounded=0;whiteSpace=wrap;html=1;" parent="1" vertex="1">
          <mxGeometry x="660" y="420" width="120" height="60" as="geometry" />
        </mxCell>
        <mxCell id="LKAKo_rA1OwzLk9EC3xo-42" value="" style="endArrow=diamondThin;endFill=1;endSize=24;html=1;exitX=1;exitY=0.5;exitDx=0;exitDy=0;entryX=0;entryY=1;entryDx=0;entryDy=0;rounded=0;jumpStyle=arc;" parent="1" source="LKAKo_rA1OwzLk9EC3xo-41" target="LKAKo_rA1OwzLk9EC3xo-34" edge="1">
          <mxGeometry width="160" relative="1" as="geometry">
            <mxPoint x="670" y="330" as="sourcePoint" />
            <mxPoint x="860" y="430" as="targetPoint" />
          </mxGeometry>
        </mxCell>
        <mxCell id="LKAKo_rA1OwzLk9EC3xo-43" value="" style="endArrow=blockThin;endFill=0;endSize=24;html=1;entryX=0.308;entryY=0.017;entryDx=0;entryDy=0;rounded=0;jumpStyle=arc;entryPerimeter=0;exitX=0;exitY=0.75;exitDx=0;exitDy=0;" parent="1" source="LKAKo_rA1OwzLk9EC3xo-36" target="dwlq3Z0FZ2SBVvlQMAz5-4" edge="1">
          <mxGeometry width="160" relative="1" as="geometry">
            <mxPoint x="440" y="410" as="sourcePoint" />
            <mxPoint x="860" y="490" as="targetPoint" />
          </mxGeometry>
        </mxCell>
        <mxCell id="LKAKo_rA1OwzLk9EC3xo-44" value="{ORDERED}*" style="text;html=1;strokeColor=none;fillColor=none;align=center;verticalAlign=middle;whiteSpace=wrap;rounded=0;" parent="1" vertex="1">
          <mxGeometry x="340" y="435" width="90" height="30" as="geometry" />
        </mxCell>
        <mxCell id="LKAKo_rA1OwzLk9EC3xo-45" value="&lt;b&gt;BRACKETS&lt;/b&gt;" style="rounded=0;whiteSpace=wrap;html=1;" parent="1" vertex="1">
          <mxGeometry x="440" y="460" width="120" height="60" as="geometry" />
        </mxCell>
        <mxCell id="LKAKo_rA1OwzLk9EC3xo-46" value="" style="endArrow=diamondThin;endFill=1;endSize=24;html=1;exitX=-0.005;exitY=0.598;exitDx=0;exitDy=0;entryX=1;entryY=0.25;entryDx=0;entryDy=0;rounded=0;jumpStyle=arc;exitPerimeter=0;" parent="1" source="LKAKo_rA1OwzLk9EC3xo-41" target="LKAKo_rA1OwzLk9EC3xo-45" edge="1">
          <mxGeometry width="160" relative="1" as="geometry">
            <mxPoint x="570" y="470" as="sourcePoint" />
            <mxPoint x="674" y="490" as="targetPoint" />
          </mxGeometry>
        </mxCell>
        <mxCell id="LKAKo_rA1OwzLk9EC3xo-47" value="{ORDERED}*" style="text;html=1;strokeColor=none;fillColor=none;align=center;verticalAlign=middle;whiteSpace=wrap;rounded=0;" parent="1" vertex="1">
          <mxGeometry x="560" y="435" width="90" height="30" as="geometry" />
        </mxCell>
        <mxCell id="LKAKo_rA1OwzLk9EC3xo-48" value="" style="endArrow=blockThin;endFill=0;endSize=24;html=1;rounded=0;jumpStyle=arc;exitX=0;exitY=0.75;exitDx=0;exitDy=0;" parent="1" source="LKAKo_rA1OwzLk9EC3xo-45" target="dwlq3Z0FZ2SBVvlQMAz5-4" edge="1">
          <mxGeometry width="160" relative="1" as="geometry">
            <mxPoint x="580" y="590" as="sourcePoint" />
            <mxPoint x="570" y="555" as="targetPoint" />
          </mxGeometry>
        </mxCell>
        <mxCell id="LKAKo_rA1OwzLk9EC3xo-49" value="&lt;b&gt;OPTIONAL&lt;/b&gt;" style="rounded=0;whiteSpace=wrap;html=1;" parent="1" vertex="1">
          <mxGeometry x="600" y="650" width="120" height="60" as="geometry" />
        </mxCell>
        <mxCell id="LKAKo_rA1OwzLk9EC3xo-50" value="" style="endArrow=diamondThin;endFill=1;endSize=24;html=1;exitX=0.25;exitY=1;exitDx=0;exitDy=0;entryX=0.5;entryY=0;entryDx=0;entryDy=0;rounded=0;jumpStyle=arc;" parent="1" source="LKAKo_rA1OwzLk9EC3xo-41" target="LKAKo_rA1OwzLk9EC3xo-49" edge="1">
          <mxGeometry width="160" relative="1" as="geometry">
            <mxPoint x="673" y="526" as="sourcePoint" />
            <mxPoint x="540" y="505" as="targetPoint" />
          </mxGeometry>
        </mxCell>
        <mxCell id="LKAKo_rA1OwzLk9EC3xo-51" value="" style="endArrow=blockThin;endFill=0;endSize=24;html=1;entryX=0.5;entryY=1;entryDx=0;entryDy=0;rounded=0;jumpStyle=arc;exitX=0;exitY=0.5;exitDx=0;exitDy=0;" parent="1" source="LKAKo_rA1OwzLk9EC3xo-49" target="dwlq3Z0FZ2SBVvlQMAz5-4" edge="1">
          <mxGeometry width="160" relative="1" as="geometry">
            <mxPoint x="520" y="690" as="sourcePoint" />
            <mxPoint x="674" y="550" as="targetPoint" />
          </mxGeometry>
        </mxCell>
        <mxCell id="LKAKo_rA1OwzLk9EC3xo-52" value="{ORDERED}*" style="text;html=1;strokeColor=none;fillColor=none;align=center;verticalAlign=middle;whiteSpace=wrap;rounded=0;" parent="1" vertex="1">
          <mxGeometry x="585" y="560" width="90" height="30" as="geometry" />
        </mxCell>
        <mxCell id="LKAKo_rA1OwzLk9EC3xo-53" value="&lt;b&gt;TSEITIN_ITERATION&lt;/b&gt;" style="rounded=0;whiteSpace=wrap;html=1;" parent="1" vertex="1">
          <mxGeometry x="750" y="650" width="120" height="60" as="geometry" />
        </mxCell>
        <mxCell id="LKAKo_rA1OwzLk9EC3xo-54" value="" style="endArrow=diamondThin;endFill=1;endSize=24;html=1;exitX=0.75;exitY=1;exitDx=0;exitDy=0;rounded=0;jumpStyle=arc;" parent="1" source="LKAKo_rA1OwzLk9EC3xo-41" edge="1">
          <mxGeometry width="160" relative="1" as="geometry">
            <mxPoint x="704" y="550" as="sourcePoint" />
            <mxPoint x="800" y="650" as="targetPoint" />
          </mxGeometry>
        </mxCell>
        <mxCell id="LKAKo_rA1OwzLk9EC3xo-55" value="" style="endArrow=blockThin;endFill=0;endSize=24;html=1;entryX=1;entryY=0.5;entryDx=0;entryDy=0;rounded=0;jumpStyle=arc;exitX=0.5;exitY=0;exitDx=0;exitDy=0;" parent="1" source="LKAKo_rA1OwzLk9EC3xo-53" target="dwlq3Z0FZ2SBVvlQMAz5-4" edge="1">
          <mxGeometry width="160" relative="1" as="geometry">
            <mxPoint x="640" y="680" as="sourcePoint" />
            <mxPoint x="734" y="550" as="targetPoint" />
          </mxGeometry>
        </mxCell>
        <mxCell id="LKAKo_rA1OwzLk9EC3xo-56" value="{ORDERED}1..2" style="text;html=1;strokeColor=none;fillColor=none;align=center;verticalAlign=middle;whiteSpace=wrap;rounded=0;" parent="1" vertex="1">
          <mxGeometry x="790" y="560" width="90" height="30" as="geometry" />
        </mxCell>
        <mxCell id="LKAKo_rA1OwzLk9EC3xo-61" value="" style="endArrow=block;endFill=0;endSize=12;html=1;curved=1;exitX=0.5;exitY=1;exitDx=0;exitDy=0;entryX=0;entryY=0;entryDx=0;entryDy=0;" parent="1" source="LKAKo_rA1OwzLk9EC3xo-5" target="LKAKo_rA1OwzLk9EC3xo-36" edge="1">
          <mxGeometry width="160" relative="1" as="geometry">
            <mxPoint x="390" y="405" as="sourcePoint" />
            <mxPoint x="460" y="423" as="targetPoint" />
          </mxGeometry>
        </mxCell>
        <mxCell id="1Yz2zj7jYPQ6T7Z7Y_W2-1" value="*" style="text;html=1;strokeColor=none;fillColor=none;align=center;verticalAlign=middle;whiteSpace=wrap;rounded=0;" parent="1" vertex="1">
          <mxGeometry x="220" y="310" width="20" height="30" as="geometry" />
        </mxCell>
        <mxCell id="1Yz2zj7jYPQ6T7Z7Y_W2-2" value="AXIOM" style="text;html=1;strokeColor=none;fillColor=none;align=center;verticalAlign=middle;whiteSpace=wrap;rounded=0;" parent="1" vertex="1">
          <mxGeometry x="575" y="255" width="50" height="15" as="geometry" />
        </mxCell>
        <mxCell id="1Yz2zj7jYPQ6T7Z7Y_W2-3" value="*" style="text;html=1;strokeColor=none;fillColor=none;align=center;verticalAlign=middle;whiteSpace=wrap;rounded=0;" parent="1" vertex="1">
          <mxGeometry x="980" y="390" width="20" height="30" as="geometry" />
        </mxCell>
        <mxCell id="1Yz2zj7jYPQ6T7Z7Y_W2-5" value="" style="endArrow=diamondThin;endFill=1;endSize=24;html=1;rounded=0;exitX=0.75;exitY=0;exitDx=0;exitDy=0;entryX=0.75;entryY=1;entryDx=0;entryDy=0;" parent="1" source="LKAKo_rA1OwzLk9EC3xo-4" target="LKAKo_rA1OwzLk9EC3xo-1" edge="1">
          <mxGeometry width="160" relative="1" as="geometry">
            <mxPoint x="590" y="280" as="sourcePoint" />
            <mxPoint x="590" y="110" as="targetPoint" />
          </mxGeometry>
        </mxCell>
        <mxCell id="dwlq3Z0FZ2SBVvlQMAz5-4" value="&lt;b&gt;&lt;i&gt;RHS_ELEMENT&lt;/i&gt;&lt;/b&gt;" style="rounded=0;whiteSpace=wrap;html=1;" parent="1" vertex="1">
          <mxGeometry x="300" y="580" width="120" height="60" as="geometry" />
        </mxCell>
        <mxCell id="dwlq3Z0FZ2SBVvlQMAz5-5" value="" style="endArrow=diamondThin;endFill=1;endSize=24;html=1;exitX=1;exitY=0.4;exitDx=0;exitDy=0;rounded=0;jumpStyle=arc;exitPerimeter=0;entryX=0;entryY=1;entryDx=0;entryDy=0;" parent="1" source="dwlq3Z0FZ2SBVvlQMAz5-4" target="LKAKo_rA1OwzLk9EC3xo-41" edge="1">
          <mxGeometry width="160" relative="1" as="geometry">
            <mxPoint x="673" y="526" as="sourcePoint" />
            <mxPoint x="670" y="520" as="targetPoint" />
          </mxGeometry>
        </mxCell>
        <mxCell id="dwlq3Z0FZ2SBVvlQMAz5-6" value="{ORDERED}*" style="text;html=1;strokeColor=none;fillColor=none;align=center;verticalAlign=middle;whiteSpace=wrap;rounded=0;" parent="1" vertex="1">
          <mxGeometry x="485" y="560" width="90" height="30" as="geometry" />
        </mxCell>
        <mxCell id="Bc6BAx35nMdSyoV4-QYP-1" value="1" style="text;html=1;align=center;verticalAlign=middle;resizable=0;points=[];autosize=1;strokeColor=none;fillColor=none;" vertex="1" parent="1">
          <mxGeometry x="655" y="298" width="30" height="30" as="geometry" />
        </mxCell>
        <mxCell id="Bc6BAx35nMdSyoV4-QYP-5" value="1" style="text;html=1;align=center;verticalAlign=middle;resizable=0;points=[];autosize=1;strokeColor=none;fillColor=none;" vertex="1" parent="1">
          <mxGeometry x="615" y="247.5" width="30" height="30" as="geometry" />
        </mxCell>
        <mxCell id="Bc6BAx35nMdSyoV4-QYP-8" value="1" style="text;html=1;align=center;verticalAlign=middle;resizable=0;points=[];autosize=1;strokeColor=none;fillColor=none;" vertex="1" parent="1">
          <mxGeometry x="775" y="448" width="30" height="30" as="geometry" />
        </mxCell>
      </root>
    </mxGraphModel>
  </diagram>
</mxfile>
